<?xml version="1.0" encoding="UTF-8"?>
<!--Generator: Apple Native CoreSVG 341-->
<!DOCTYPE svg
PUBLIC "-//W3C//DTD SVG 1.1//EN"
       "http://www.w3.org/Graphics/SVG/1.1/DTD/svg11.dtd">
<svg version="1.1" xmlns="http://www.w3.org/2000/svg" xmlns:xlink="http://www.w3.org/1999/xlink" viewBox="0 0 554.5 497.25">
 <g>
  <rect height="497.25" opacity="0" width="554.5" x="0" y="0"/>
  <path d="M0 317.5C42 386 151.5 491.5 299.25 491.5C393.25 491.5 419.25 447.75 473.75 447.75C519.25 447.75 537.25 478.25 544.25 490.25C546.25 494 549.75 496.5 551.75 489.25C553 484 554.5 477 554.5 468.5C554.5 444.5 547 398.75 507 348.5C515.75 324 516.75 296.75 516.75 280.75C516.75 208 475.75 81.5 340.25 0C368.5 39.75 406.25 100.5 406.25 184.5C406.25 215 398 248.5 391.25 265.25C317.5 222.5 176.5 105 120.25 45C165.5 114.5 219 177.5 278.5 243.5C198.5 192.75 124 136.25 54.75 74.25C121.25 170.75 205.25 265.75 316.25 355.5C284.5 373.25 252 387 196 387C128.25 387 45.25 354.25 0 317.5Z" fill="#ff9230"/>
 </g>
</svg>
