<svg width="41" height="41" viewBox="0 0 41 41" fill="none" xmlns="http://www.w3.org/2000/svg">
<path d="M20.3202 12.1503H19.6797C17.5572 12.1503 15.8365 13.871 15.8365 15.9935V30.7255C15.8365 32.848 17.5572 34.5686 19.6797 34.5686H20.3202C22.4427 34.5686 24.1633 32.848 24.1633 30.7255V15.9935C24.1633 13.871 22.4427 12.1503 20.3202 12.1503Z" fill="#0d6efd"/>
<path d="M31.2091 6.38562H30.5686C28.4461 6.38562 26.7255 8.10625 26.7255 10.2288V30.7255C26.7255 32.848 28.4461 34.5686 30.5686 34.5686H31.2091C33.3316 34.5686 35.0523 32.848 35.0523 30.7255V10.2288C35.0523 8.10625 33.3316 6.38562 31.2091 6.38562Z" fill="#0d6efd"/>
<path d="M9.43141 17.915H8.79089C6.66838 17.915 4.94775 19.6357 4.94775 21.7582V30.7255C4.94775 32.848 6.66838 34.5686 8.79089 34.5686H9.43141C11.5539 34.5686 13.2746 32.848 13.2746 30.7255V21.7582C13.2746 19.6357 11.5539 17.915 9.43141 17.915Z" fill="#0d6efd"/>
</svg>
