<?xml version="1.0" encoding="UTF-8"?>
<!--Generator: Apple Native CoreSVG 341-->
<!DOCTYPE svg
PUBLIC "-//W3C//DTD SVG 1.1//EN"
       "http://www.w3.org/Graphics/SVG/1.1/DTD/svg11.dtd">
<svg version="1.1" xmlns="http://www.w3.org/2000/svg" xmlns:xlink="http://www.w3.org/1999/xlink" viewBox="0 0 539.75 474.25">
 <g>
  <rect height="474.25" opacity="0" width="539.75" x="0" y="0"/>
  <path d="M7.25 30.25C2 55.75 0 89 0 111.25C0 298.25 111.25 421.75 281.25 421.75C390.75 421.75 442.25 357.25 453.5 336.5L422.25 335.75C454.75 369.75 469.25 406.25 485.75 458C489.5 470 497.75 474.25 506.5 474.25C525 474.25 539.75 458.25 539.75 436.25C539.75 401.75 490.25 341.75 464.5 317.5C355 216.5 188.25 276.25 145.25 164.75C142 156.25 151 148.75 159.25 157.25C245.5 243.5 356.5 170.75 464.5 270.25C473 277.75 483 273.75 484.5 264.75C485.75 257.5 486.5 246 486.5 235C486.5 113 401.5 54.25 282 54.25C242 54.25 195.25 64 158.5 64C118.25 64 73 60.75 37 22.25C26.75 11.75 11.25 13.25 7.25 30.25Z" fill="white" fill-opacity="0.85"/>
 </g>
</svg>
