<?xml version="1.0" encoding="UTF-8"?>
<!--Generator: Apple Native CoreSVG 341-->
<!DOCTYPE svg
PUBLIC "-//W3C//DTD SVG 1.1//EN"
       "http://www.w3.org/Graphics/SVG/1.1/DTD/svg11.dtd">
<svg version="1.1" xmlns="http://www.w3.org/2000/svg" xmlns:xlink="http://www.w3.org/1999/xlink" viewBox="0 0 589.5 460.25">
 <g>
  <rect height="460.25" opacity="0" width="589.5" x="0" y="0"/>
  <path d="M76.75 442.75L495.75 442.75C541 442.75 563.75 417.5 563.75 369.5L415.25 230C404.25 219.75 391 214.5 377.5 214.5C363.75 214.5 351.5 219.25 340 229.5L227 330.5L180.75 288.75C170.25 279.25 158.75 274.5 147 274.5C135.75 274.5 125 279 114.75 288.5L19.5 374.5C21 419.75 39.5 442.75 76.75 442.75ZM78.5 460.25L511 460.25C563.5 460.25 589.5 434.5 589.5 383L589.5 77.5C589.5 26 563.5 0 511 0L78.5 0C26.25 0 0 26 0 77.5L0 383C0 434.5 26.25 460.25 78.5 460.25ZM79 420C54 420 40.25 406.75 40.25 380.75L40.25 79.75C40.25 53.75 54 40.25 79 40.25L510.5 40.25C535.25 40.25 549.25 53.75 549.25 79.75L549.25 380.75C549.25 406.75 535.25 420 510.5 420Z" fill="black" fill-opacity="0.85"/>
  <path d="M186.25 232.5C218.5 232.5 245 206 245 173.5C245 141.25 218.5 114.5 186.25 114.5C153.75 114.5 127.25 141.25 127.25 173.5C127.25 206 153.75 232.5 186.25 232.5Z" fill="black" fill-opacity="0.85"/>
 </g>
</svg>
