<?xml version="1.0" encoding="UTF-8"?>
<!--Generator: Apple Native CoreSVG 341-->
<!DOCTYPE svg
PUBLIC "-//W3C//DTD SVG 1.1//EN"
       "http://www.w3.org/Graphics/SVG/1.1/DTD/svg11.dtd">
<svg version="1.1" xmlns="http://www.w3.org/2000/svg" xmlns:xlink="http://www.w3.org/1999/xlink" viewBox="0 0 488.501 564.75">
 <g>
  <rect height="564.75" opacity="0" width="488.501" x="0" y="0"/>
  <path d="M224.376 79.75L264.626 79.75L264.626 20.25C264.626 9.25 255.376 0 244.376 0C233.376 0 224.376 9.25 224.376 20.25ZM160.876 229.25L393.376 229.25C407.626 229.25 417.626 225.25 426.876 216.25L474.876 170.5C493.126 153 493.126 136.5 474.376 118L426.876 72C417.876 63.25 407.876 59.5 393.626 59.5L160.876 59.5C138.626 59.5 125.376 71.75 125.376 94.75L125.376 194C125.376 216.75 138.626 229.25 160.876 229.25ZM169.376 193.5C164.876 193.5 161.126 189.75 161.126 185.25L161.126 103.5C161.126 99 164.876 95.25 169.376 95.25L392.876 95.25C396.876 95.25 401.126 96.5 403.626 98.75L443.876 138.25C447.626 141.5 447.876 147 443.876 150.75L403.126 189.5C400.376 192 396.376 193.5 392.626 193.5ZM95.1256 438.5L327.626 438.5C350.126 438.5 363.126 426 363.126 403.25L363.126 303.75C363.126 281 350.126 268.5 327.626 268.5L94.8756 268.5C80.8756 268.5 70.8756 272.5 61.6256 281.25L14.3756 327.25C-4.37437 345.5-4.62437 362.25 13.8756 380L61.6256 425.5C71.1256 434.5 81.1256 438.5 95.1256 438.5ZM95.8756 402.75C92.1256 402.75 88.3756 401.25 85.6256 398.75L44.6256 360.25C40.8756 356.5 41.1256 350.75 44.6256 347.5L85.1256 308C87.6256 305.75 91.8756 304.25 95.6256 304.25L319.126 304.25C323.626 304.25 327.376 308 327.376 312.5L327.376 394.5C327.376 399 323.626 402.75 319.126 402.75ZM224.376 284.5L264.626 284.5L264.626 211.75L224.376 211.75ZM224.376 544.5L264.626 544.5L264.626 410.25L224.376 410.25ZM157.876 563.25L330.626 563.25C341.626 563.25 350.626 554.25 350.626 543.25C350.626 532.25 341.626 523 330.626 523L157.876 523C146.876 523 137.876 532.25 137.876 543.25C137.876 554.25 146.876 563.25 157.876 563.25Z" fill="white" fill-opacity="0.85"/>
 </g>
</svg>
