<?xml version="1.0" encoding="UTF-8"?>
<!--Generator: Apple Native CoreSVG 341-->
<!DOCTYPE svg
PUBLIC "-//W3C//DTD SVG 1.1//EN"
       "http://www.w3.org/Graphics/SVG/1.1/DTD/svg11.dtd">
<svg version="1.1" xmlns="http://www.w3.org/2000/svg" xmlns:xlink="http://www.w3.org/1999/xlink" viewBox="0 0 460.25 460.75">
 <g>
  <rect height="460.75" opacity="0" width="460.25" x="0" y="0"/>
  <path d="M47.75 210L161.75 210C193.5 210 209.5 194 209.5 161L209.5 49.25C209.5 16.25 193.5 0.5 161.75 0.5L47.75 0.5C16 0.5 0 16.25 0 49.25L0 161C0 194 16 210 47.75 210ZM48.25 174.75C39.5 174.75 35.25 170.25 35.25 161L35.25 49.25C35.25 40.25 39.5 35.75 48.25 35.75L161 35.75C169.75 35.75 174.25 40.25 174.25 49.25L174.25 161C174.25 170.25 169.75 174.75 161 174.75ZM83.25 131.5L126 131.5C129.5 131.5 131 130 131 125.75L131 84.25C131 80.25 129.5 78.75 126 78.75L83.25 78.75C79.5 78.75 78.25 80.25 78.25 84.25L78.25 125.75C78.25 130 79.5 131.5 83.25 131.5ZM298.75 210L412.5 210C444.25 210 460.25 194 460.25 161L460.25 49.25C460.25 16.25 444.25 0.5 412.5 0.5L298.75 0.5C266.75 0.5 250.75 16.25 250.75 49.25L250.75 161C250.75 194 266.75 210 298.75 210ZM299.25 174.75C290.25 174.75 286 170.25 286 161L286 49.25C286 40.25 290.25 35.75 299.25 35.75L412 35.75C420.75 35.75 425 40.25 425 49.25L425 161C425 170.25 420.75 174.75 412 174.75ZM335.5 131.5L378.25 131.5C382 131.5 383.5 130 383.5 125.75L383.5 84.25C383.5 80.25 382 78.75 378.25 78.75L335.5 78.75C332 78.75 330.75 80.25 330.75 84.25L330.75 125.75C330.75 130 332 131.5 335.5 131.5ZM47.75 460.75L161.75 460.75C193.5 460.75 209.5 445 209.5 412L209.5 300C209.5 267.25 193.5 251.25 161.75 251.25L47.75 251.25C16 251.25 0 267.25 0 300L0 412C0 445 16 460.75 47.75 460.75ZM48.25 425.5C39.5 425.5 35.25 421 35.25 412L35.25 300.25C35.25 291 39.5 286.5 48.25 286.5L161 286.5C169.75 286.5 174.25 291 174.25 300.25L174.25 412C174.25 421 169.75 425.5 161 425.5ZM83.25 382.5L126 382.5C129.5 382.5 131 381 131 376.5L131 335.25C131 331.25 129.5 329.75 126 329.75L83.25 329.75C79.5 329.75 78.25 331.25 78.25 335.25L78.25 376.5C78.25 381 79.5 382.5 83.25 382.5ZM267.75 316L310.5 316C314 316 315.5 314.5 315.5 310.25L315.5 268.75C315.5 264.75 314 263.25 310.5 263.25L267.75 263.25C264 263.25 262.75 264.75 262.75 268.75L262.75 310.25C262.75 314.5 264 316 267.75 316ZM400.5 316L443.25 316C446.75 316 448.25 314.5 448.25 310.25L448.25 268.75C448.25 264.75 446.75 263.25 443.25 263.25L400.5 263.25C396.75 263.25 395.5 264.75 395.5 268.75L395.5 310.25C395.5 314.5 396.75 316 400.5 316ZM334.75 382.5L377.5 382.5C381 382.5 382.5 381 382.5 376.5L382.5 335.25C382.5 331.25 381 329.75 377.5 329.75L334.75 329.75C331 329.75 329.75 331.25 329.75 335.25L329.75 376.5C329.75 381 331 382.5 334.75 382.5ZM267.75 448.75L310.5 448.75C314 448.75 315.5 447.25 315.5 443L315.5 401.5C315.5 397.5 314 396 310.5 396L267.75 396C264 396 262.75 397.5 262.75 401.5L262.75 443C262.75 447.25 264 448.75 267.75 448.75ZM400.5 448.75L443.25 448.75C446.75 448.75 448.25 447.25 448.25 443L448.25 401.5C448.25 397.5 446.75 396 443.25 396L400.5 396C396.75 396 395.5 397.5 395.5 401.5L395.5 443C395.5 447.25 396.75 448.75 400.5 448.75Z" fill="white" fill-opacity="0.85"/>
 </g>
</svg>
